<?xml version="1.0" encoding="utf-8"?>
<!-- Generator: Adobe Illustrator 23.0.3, SVG Export Plug-In . SVG Version: 6.00 Build 0)  -->
<svg version="1.1" id="Слой_1" xmlns="http://www.w3.org/2000/svg" xmlns:xlink="http://www.w3.org/1999/xlink" x="0px" y="0px"
	 viewBox="0 0 100 100" style="enable-background:new 0 0 100 100;" xml:space="preserve">
<style type="text/css">
	.st0{fill:none;stroke:#06ADEF;stroke-width:4;stroke-linecap:round;stroke-linejoin:round;stroke-miterlimit:10;}
	.st1{fill:none;stroke:#253246;stroke-width:2;stroke-linecap:round;stroke-linejoin:round;stroke-miterlimit:10;}
	.st2{fill:none;stroke:#253246;stroke-width:4;stroke-linecap:round;stroke-linejoin:round;stroke-miterlimit:10;}
</style>
<g>
	<path class="st0" d="M66.6,36.8l20,5.3c1.1,0.3,1.5,1.8,0.5,2.5L83,47.9c-0.7,0.6-0.7,1.6-0.1,2.2l6.8,6.7c0.6,0.6,0.6,1.5,0,2.1
		l-1.3,1.3l-1.3,1.3c-0.6,0.6-1.5,0.6-2.1,0l-6.8-6.7c-0.6-0.6-1.6-0.5-2.2,0.1l-3.2,4.2c-0.7,0.9-2.2,0.6-2.5-0.5l-5.6-19.9
		C64.5,37.5,65.5,36.5,66.6,36.8z"/>
	<line class="st1" x1="41.9" y1="33.5" x2="59.3" y2="33.5"/>
	<line class="st0" x1="49.5" y1="46.1" x2="58.7" y2="46.1"/>
	<line class="st1" x1="59.3" y1="38.8" x2="41.9" y2="38.8"/>
	<path class="st2" d="M80.8,65c0,2.2-1.8,4-4,4h-63c-2.2,0-4-1.8-4-4V23.3h71l0.1,11.3"/>
	<path class="st2" d="M80.8,23.9v-3.7c0-2.1-1.7-3.9-3.9-3.9H13.7c-2.1,0-3.9,1.7-3.9,3.9v3.7"/>
	<g>
		<path class="st1" d="M32.8,50.3c-0.7,2.7,1.1,4.1,6.7,4.6c5.2,0.5,3.7,7.9,3.7,7.9H29.4h0.1H15.7c0,0-1.5-7.4,3.7-7.9
			c5.6-0.5,7.4-1.9,6.7-4.6"/>
		<path class="st1" d="M25,53.5c1.9,1.7,5,3,9.3,0.2"/>
		<path class="st1" d="M22.9,39.3c0,2.7,0,4.1,0,5.6s0.8,6.2,6.5,6.1s6.5-4.6,6.5-6.2s0-5.6,0-5.6c-2.7,1.3-8.6,2-13.3-4.6"/>
		<path class="st1" d="M37.7,38.7c-0.9-3.5-2.7-7.1-8.1-7.7c-3.1-0.3-5.6,1.5-7,3.7c-1.1,1.7-1.4,3.6-0.9,4.9c1.9-0.5,3.6-2,3.6-2"
			/>
	</g>
	<path class="st1" d="M60.7,83.7H29.9c-1.1,0-2-0.9-2-2l0,0c0-1.1,0.9-2,2-2h30.7c1.1,0,2,0.9,2,2l0,0
		C62.7,82.8,61.8,83.7,60.7,83.7z"/>
	<polygon class="st1" points="55.3,79.7 35.3,79.7 37.3,69 53.3,69 	"/>
</g>
</svg>
