<?xml version="1.0" encoding="utf-8"?>
<!-- Generator: Adobe Illustrator 23.0.3, SVG Export Plug-In . SVG Version: 6.00 Build 0)  -->
<svg version="1.1" id="Слой_1" xmlns="http://www.w3.org/2000/svg" xmlns:xlink="http://www.w3.org/1999/xlink" x="0px" y="0px"
	 viewBox="0 0 100 100" style="enable-background:new 0 0 100 100;" xml:space="preserve">
<style type="text/css">
	.st0{fill:none;stroke:#2D3547;stroke-width:2;stroke-miterlimit:10;}
	.st1{fill:none;stroke:#2D3547;stroke-width:2;stroke-linecap:round;stroke-linejoin:round;stroke-miterlimit:10;}
	.st2{fill:none;stroke:#06ADEF;stroke-width:4;stroke-linecap:round;stroke-linejoin:round;stroke-miterlimit:10;}
	.st3{fill:none;stroke:#2D3547;stroke-width:4;stroke-linecap:round;stroke-linejoin:round;stroke-miterlimit:10;}
	.st4{fill:none;stroke:#61AAEB;stroke-width:4;stroke-linecap:round;stroke-linejoin:round;stroke-miterlimit:10;}
	.st5{fill:none;stroke:#2D3547;stroke-width:3;stroke-linecap:round;stroke-linejoin:round;stroke-miterlimit:10;}
</style>
<g>
	<circle class="st0" cx="78" cy="31.7" r="4.4"/>
	<circle class="st0" cx="78" cy="36.2" r="4.4"/>
	<line class="st1" x1="76.8" y1="76" x2="76.8" y2="56.9"/>
	<line class="st1" x1="76.8" y1="50.1" x2="76.8" y2="46.9"/>
	<line class="st1" x1="80.1" y1="53.5" x2="80.1" y2="46.9"/>
	<line class="st1" x1="80.1" y1="56.9" x2="80.1" y2="69.3"/>
	<line class="st1" x1="80.1" y1="73.8" x2="80.1" y2="76"/>
	<path class="st2" d="M70.1,20.9h16.3c1.1,0,2,0.9,2,2v56.8c0,1.1-0.9,2-2,2H70.1"/>
	<path class="st1" d="M54.7,52H21C20,52,19,51.1,19,49.9V22.3c0-1.1,0.9-2.1,2.1-2.1h33.7c1.1,0,2.1,0.9,2.1,2.1v27.6
		C56.9,51,55.9,52,54.7,52z"/>
	<line class="st3" x1="19.5" y1="60.4" x2="30" y2="60.4"/>
	<line class="st3" x1="19.5" y1="67.9" x2="30" y2="67.9"/>
	<line class="st3" x1="19.5" y1="75.8" x2="30" y2="75.8"/>
	<line class="st3" x1="36.9" y1="60.4" x2="47.4" y2="60.4"/>
	<line class="st3" x1="36.9" y1="67.9" x2="47.4" y2="67.9"/>
	<line class="st3" x1="36.9" y1="75.8" x2="47.4" y2="75.8"/>
	<line class="st3" x1="54.4" y1="60.4" x2="56.5" y2="60.4"/>
	<line class="st3" x1="54.4" y1="67.9" x2="56.5" y2="67.9"/>
	<line class="st4" x1="54.4" y1="75.8" x2="56.5" y2="75.8"/>
	<polyline class="st2" points="36.9,34.1 41,38.2 47.6,31.5 	"/>
	<path class="st3" d="M48.2,37.9c-0.1,0.7-0.4,1.4-0.7,2.1c-2.1,4.6-7.5,6.5-12.1,4.4S29,36.9,31,32.3s7.5-6.6,12.1-4.5"/>
	<path class="st5" d="M60.2,88.5H15.6c-2.2,0-4-1.8-4-4v-69c0-2.2,1.8-4,4-4h44.5c2.2,0,4,1.8,4,4v69C64.2,86.7,62.5,88.5,60.2,88.5
		z"/>
</g>
</svg>
