<?xml version="1.0" encoding="utf-8"?>
<!-- Generator: Adobe Illustrator 23.1.1, SVG Export Plug-In . SVG Version: 6.00 Build 0)  -->
<svg version="1.1" id="Слой_1" xmlns="http://www.w3.org/2000/svg" xmlns:xlink="http://www.w3.org/1999/xlink" x="0px" y="0px"
	 viewBox="0 0 100 100" style="enable-background:new 0 0 100 100;" xml:space="preserve">
<style type="text/css">
	.st0{fill:none;stroke:#2C3549;stroke-width:2;stroke-linecap:round;stroke-linejoin:round;stroke-miterlimit:10;}
	.st1{fill:none;stroke:#2C3549;stroke-width:3;stroke-linecap:round;stroke-linejoin:round;stroke-miterlimit:10;}
	.st2{fill:none;stroke:#06ADEF;stroke-width:4;stroke-linecap:round;stroke-linejoin:round;stroke-miterlimit:10;}
	.st3{fill:none;stroke:#2C3549;stroke-width:4;stroke-linecap:round;stroke-miterlimit:10;}
	.st4{fill:#2C3549;}
</style>
<path class="st0" d="M25.1,33.9c0,0,23-11.1,23.2-10.6c1,2.4,1.3,3.3,1.3,5.3s-0.2,11.9,0,12.9C49.4,44,46.7,52,38.2,52
	S25.1,42,25.1,42V33.9z"/>
<path class="st1" d="M27.1,53.2c-5.2-0.5-8.7-3.7-8.9-6.9s-0.3-13.8,0-17.8c0.2-4.5,6.2-17.3,19.2-17.3s19,10.8,19,15.8
	s0.2,16.5,0,19.7c-0.2,3.5-2.7,6.2-8.6,6.6"/>
<path class="st0" d="M31.7,50c-0.3,4.3,0.1,8.6-2.1,8.8s-14-0.6-16.3,3c-2.4,3.6-1.8,5.9-1.8,5.9l0.7,22.9"/>
<path class="st0" d="M44.5,51c0.3,4.3-0.1,8.6,2.1,8.8s14-0.6,16.3,3c2.4,3.6,1.8,5.9,1.8,5.9l-0.7,21.9"/>
<path class="st0" d="M20.7,72.5c-3.4,4.3-4,10.8,0,15c0.3,3.9,0.3,2.9,0.3,2.9"/>
<path class="st0" d="M55.5,72.5c3.4,4.3,4,10.8,0,15c-0.3,3.9-0.3,2.9-0.3,2.9"/>
<polyline class="st0" points="25.1,58.8 38,76.6 49.6,59.9 "/>
<g>
	<line class="st0" x1="70.1" y1="66.3" x2="79.1" y2="66.3"/>
	<line class="st0" x1="69.9" y1="60.4" x2="88.9" y2="60.4"/>
	<path class="st0" d="M69.9,54.9c0.2,0.2,9.6,0,9.6,0"/>
	<line class="st0" x1="82.8" y1="55" x2="88.9" y2="55"/>
</g>
<path class="st2" d="M87,26.1c1.6,2.5,2.4,5.6,2,8.8c-0.9,7.2-7.5,12.3-14.7,11.3c-1-0.1-2-0.4-2.9-0.7c-1.2-0.5-7.5,4.8-8.5,4
	c-1.2-0.9,2.8-8,2-9.3c-1.6-2.5-2.4-5.6-2-8.8c0.4-3.3,2.1-6.2,4.4-8.2"/>
<g>
	<path class="st3" d="M71,17.8c2.4-5.1,11.1-6.4,12.6-0.5c1.3,5-7.5,8.1-7.3,14.4"/>
	<circle class="st4" cx="76.5" cy="38.1" r="2.3"/>
</g>
</svg>
