<?xml version="1.0" encoding="utf-8"?>
<!-- Generator: Adobe Illustrator 23.0.3, SVG Export Plug-In . SVG Version: 6.00 Build 0)  -->
<svg version="1.1" id="Слой_1" xmlns="http://www.w3.org/2000/svg" xmlns:xlink="http://www.w3.org/1999/xlink" x="0px" y="0px"
	 viewBox="0 0 100 100" style="enable-background:new 0 0 100 100;" xml:space="preserve">
<style type="text/css">
	.st0{fill:#2D3547;}
	.st1{fill:none;stroke:#2D3547;stroke-width:2;stroke-linecap:round;stroke-linejoin:round;stroke-miterlimit:10;}
	.st2{fill:none;stroke:#2D3547;stroke-width:3;stroke-linecap:round;stroke-linejoin:round;stroke-miterlimit:10;}
	.st3{fill:none;stroke:#2D3547;stroke-width:4;stroke-linecap:round;stroke-linejoin:round;stroke-miterlimit:10;}
	.st4{fill:none;stroke:#06ADEF;stroke-width:4;stroke-linecap:round;stroke-linejoin:round;stroke-miterlimit:10;}
</style>
<g>
	<g>
		<path class="st0" d="M60.9,20.4c-2.2,0-4.1,1.8-4.1,4.1v8.8c0,0.8,0.6,1.4,1.4,1.4c0.8,0,1.4-0.6,1.4-1.4v-3h2.4v3
			c0,0.8,0.6,1.4,1.4,1.4c0.8,0,1.4-0.6,1.4-1.4v-8.8C65,22.3,63.2,20.4,60.9,20.4z M62.1,27.5h-2.4v-3c0-0.7,0.5-1.2,1.2-1.2
			c0.7,0,1.2,0.5,1.2,1.2V27.5z"/>
	</g>
</g>
<g>
	<g>
		<path class="st0" d="M71.8,20.4h-2.9c-0.8,0-1.4,0.6-1.4,1.4v7v4.4c0,0.8,0.6,1.4,1.4,1.4s1.4-0.6,1.4-1.4v-3h1.5
			c2.4,0,4.3-1.9,4.3-4.3v-1.2C76.1,22.4,74.1,20.4,71.8,20.4z M73.2,26c0,0.8-0.7,1.5-1.5,1.5h-1.5v-4.2h1.5c0.8,0,1.5,0.7,1.5,1.5
			V26z"/>
	</g>
</g>
<path class="st1" d="M85.5,41.3v23.9c0,2.2-1.8,4-4,4H18.5c-2.2,0-4-1.8-4-4V28.9h34.9"/>
<path class="st1" d="M48.9,23.4H18.4c-2.1,0-3.9,1.7-3.9,3.9v0.6"/>
<path class="st1" d="M30.2,74.1h10c0.4,0,0.7,0.1,1.1,0.3l0.7,0.4c0.3,0.2,0.7,0.3,1.1,0.3h13.5c0.4,0,0.7-0.1,1.1-0.3l0.6-0.4
	c0.3-0.2,0.7-0.3,1.1-0.3h27c1.1,0,2,0.9,2,2v2.6c0,1.1-0.9,2-2,2H13.4c-1.1,0-2-0.9-2-2v-2.6c0-1.1,0.9-2,2-2h4.4"/>
<line class="st2" x1="23" y1="74.1" x2="25.4" y2="74.1"/>
<line class="st1" x1="14.5" y1="74.1" x2="14.5" y2="64.4"/>
<path class="st1" d="M14.5,74.1"/>
<line class="st1" x1="85.5" y1="64.1" x2="85.5" y2="74.1"/>
<circle class="st2" cx="25.3" cy="40.5" r="3.1"/>
<circle class="st2" cx="48.5" cy="56.6" r="3.1"/>
<circle class="st3" cx="39.2" cy="40.6" r="4.9"/>
<circle class="st3" cx="71.7" cy="56.6" r="6"/>
<line class="st1" x1="26" y1="43.5" x2="27.3" y2="50.5"/>
<line class="st1" x1="31.8" y1="51.3" x2="36.6" y2="44.7"/>
<line class="st1" x1="35.3" y1="56.6" x2="45.5" y2="56.6"/>
<line class="st1" x1="51.6" y1="56.6" x2="65.7" y2="56.6"/>
<path class="st2" d="M73.1,15.2"/>
<path class="st0" d="M80,34.7L80,34.7c-0.7,0-1.3-0.6-1.3-1.3V21.8c0-0.7,0.6-1.3,1.3-1.3l0,0c0.7,0,1.3,0.6,1.3,1.3v11.6
	C81.3,34.1,80.7,34.7,80,34.7z"/>
<path class="st4" d="M79.9,15.2h6.4c1.1,0,2,0.9,2,2v21.2c0,1.1-0.9,2-2,2h-29c-0.5,0-1,0.2-1.3,0.5l-2.7,2.4
	c-1.3,1.1-3.3,0.2-3.3-1.5V17.2c0-1.1,0.9-2,2-2h29.4"/>
<circle class="st4" cx="28.4" cy="57.2" r="6.8"/>
</svg>
